#!OML:ASF H:\Terrain\Patient Classification 1\Terrain2\Thursday\justin.ASF
:FULLY-SPECIFIED
:DEGREES
3584
root 29.9111 17.9559 11.5728 1265.55 27.0606 -173.429
lowerback 6.73349 0.553736 4.52129
upperback 2.6278 1.3551 3.64199
thorax -1.05305 0.79925 1.11371
lowerneck -14.5397 -1.49345 -7.2159
upperneck 38.9676 3.75031 0.539537
head 16.3645 1.72156 2.5291
rclavicle -2.96189e-014 1.98785e-014
rhumerus -33.961 -0.458067 -81.5649
rradius 31.5961
rwrist -7.9677
rhand -21.1558 12.5054
rfingers 7.12502
rthumb 5.22391 -17.4102
lclavicle -2.96189e-014 1.98785e-014
lhumerus -34.9048 7.51034 86.3345
lradius 31.8643
lwrist 5.50924
lhand -20.8501 24.4297
lfingers 7.12502
lthumb 5.51906 54.3378
rfemur -6.08122 -3.51695 25.0514
rtibia 27.8743
rfoot -20.0827 -7.87781
rtoes 8.52076
lfemur -19.055 5.3176 -14.2567
ltibia 43.1444
lfoot -24.3635 -1.61287
ltoes -29.0014
3585
root 29.9288 17.9689 11.577 1265.61 26.3693 -173.623
lowerback 6.46488 0.613407 4.33151
upperback 2.59064 1.40314 3.68685
thorax -0.947149 0.822099 1.26649
lowerneck -14.4173 -1.52894 -7.43877
upperneck 38.9041 3.70184 0.729318
head 16.2948 1.70792 2.6402
rclavicle -1.43125e-014 -6.36111e-015
rhumerus -33.7625 -0.938196 -81.1424
rradius 31.1565
rwrist -7.2836
rhand -21.1945 12.8767
rfingers 7.12502
rthumb 5.18651 -17.0398
lclavicle -1.43125e-014 -6.36111e-015
lhumerus -34.8977 7.78886 86.2722
lradius 31.6338
lwrist 5.59591
lhand -20.4259 24.6201
lfingers 7.12502
lthumb 5.9286 54.5171
rfemur -6.12771 -3.82318 24.9906
rtibia 27.7316
rfoot -19.9587 -8.19729
rtoes 7.74818
lfemur -19.3381 6.65426 -14.6121
ltibia 43.3373
lfoot -23.5623 -1.9489
ltoes -25.4384
3586
root 29.9417 17.9731 11.5829 1265.69 25.5579 -173.662
lowerback 6.24891 0.627675 4.39246
upperback 2.58406 1.41106 3.68767
thorax -0.83232 0.828021 1.2365
lowerneck -14.3952 -1.5717 -7.45871
upperneck 38.8806 3.62691 0.818748
head 16.2774 1.69499 2.67077
rclavicle 5.89397e-014 -2.78299e-014
rhumerus -33.5679 -1.31794 -80.9875
rradius 30.9765
rwrist -7.40877
rhand -21.1926 12.2418
rfingers 7.12502
rthumb 5.18838 -17.6746
lclavicle 5.89397e-014 -2.78299e-014
lhumerus -34.8912 7.83555 86.2674
lradius 31.381
lwrist 5.60121
lhand -21.3806 23.7782
lfingers 7.12502
lthumb 5.00691 53.6991
rfemur -6.1149 -4.19117 25.0732
rtibia 27.5299
rfoot -19.9789 -8.38407
rtoes 8.05286
lfemur -19.5535 7.89189 -14.7911
ltibia 43.4638
lfoot -22.6349 -2.87505
ltoes -18.1606
3587
root 29.955 17.969 11.5862 1265.57 24.6097 -173.532
lowerback 6.42551 0.59396 4.66841
upperback 2.50885 1.40638 3.70861
thorax -1.0023 0.826446 1.10056
lowerneck -14.1681 -1.64148 -7.34817
upperneck 38.884 3.55579 0.738685
head 16.2321 1.69338 2.60463
rclavicle 8.59744e-014 4.37326e-014
rhumerus -33.6885 -1.65005 -80.8824
rradius 30.9323
rwrist -7.67664
rhand -21.4033 11.4065
rfingers 7.12502
rthumb 4.98491 -18.5149
lclavicle 8.59744e-014 4.37326e-014
lhumerus -35.146 7.82523 86.2203
lradius 31.0843
lwrist 5.71293
lhand -23.2839 23.1547
lfingers 7.12502
lthumb 3.16895 53.1109
rfemur -5.78744 -4.55527 25.3513
rtibia 27.3057
rfoot -20.0542 -8.80237
rtoes 8.461
lfemur -19.4219 9.00836 -14.749
ltibia 43.523
lfoot -22.9267 -2.47559
ltoes -15.3121
3588
root 29.9713 17.9733 11.5823 1265.39 23.7334 -173.606
lowerback 6.52993 0.613222 4.7077
upperback 2.41592 1.44717 3.71044
thorax -1.15492 0.843529 1.07463
lowerneck -13.9528 -1.71791 -7.23736
upperneck 38.9604 3.49809 0.67023
head 16.2271 1.70242 2.55084
rclavicle -1.32192e-014 -2.94201e-014
rhumerus -33.8983 -1.89754 -80.7412
rradius 30.9311
rwrist -7.73658
rhand -21.7543 11.0011
rfingers 7.12502
rthumb 4.64602 -18.9279
lclavicle -1.32192e-014 -2.94201e-014
lhumerus -35.4578 8.22332 85.934
lradius 30.8978
lwrist 5.30116
lhand -23.1172 23.2472
lfingers 7.12502
lthumb 3.32988 53.201
rfemur -5.45356 -4.69414 25.4552
rtibia 27.0732
rfoot -20.0636 -9.51836
rtoes 9.29002
lfemur -19.3424 9.99887 -14.9118
ltibia 43.4912
lfoot -23.0373 -2.57844
ltoes -12.0028
3589
root 29.9845 17.9877 11.5722 1265.27 22.8319 -173.773
lowerback 6.42435 0.679115 4.71849
upperback 2.41869 1.52422 3.65359
thorax -1.09025 0.882246 1.00636
lowerneck -13.9529 -1.87908 -7.28898
upperneck 39.0043 3.22028 0.885568
head 16.2568 1.6198 2.61238
rclavicle 1.0138e-014 1.59028e-014
rhumerus -34.0157 -2.07797 -80.6736
rradius 31.1083
rwrist -8.05675
rhand -22.0332 10.9728
rfingers 7.12502
rthumb 4.37672 -18.9619
lclavicle 1.0138e-014 1.59028e-014
lhumerus -35.5154 8.21943 85.805
lradius 30.7288
lwrist 5.51131
lhand -22.6629 23.1302
lfingers 7.12502
lthumb 3.76859 53.0766
rfemur -5.24808 -4.8722 25.4749
rtibia 26.8883
rfoot -20.1104 -10.3206
rtoes 9.15171
lfemur -19.3935 10.8228 -15.1916
ltibia 43.3201
lfoot -23.1146 -2.48536
ltoes -11.6489
3590
root 29.997 17.9897 11.5648 1265.17 21.9413 -173.719
lowerback 6.44888 0.699466 4.90007
upperback 2.4666 1.57161 3.67155
thorax -1.04951 0.911702 0.920595
lowerneck -14.0594 -2.03413 -7.51056
upperneck 39.0063 2.96659 1.15299
head 16.2891 1.52105 2.72939
rclavicle -2.28602e-014 -8.74653e-015
rhumerus -33.9766 -2.04558 -80.667
rradius 31.1838
rwrist -8.61648
rhand -22.105 11.0034
rfingers 7.12502
rthumb 4.30736 -18.9328
lclavicle -2.28602e-014 -8.74653e-015
lhumerus -35.4279 7.99415 85.8832
lradius 30.4849
lwrist 6.6466
lhand -23.3646 22.6142
lfingers 7.12502
lthumb 3.09102 52.5716
rfemur -4.99096 -5.12914 25.71
rtibia 26.7041
rfoot -20.1371 -10.9993
rtoes 8.10993
lfemur -19.231 11.6384 -15.1784
ltibia 43.0171
lfoot -22.9964 -2.73931
ltoes -9.80633
3591
root 30.0095 17.976 11.5581 1265.06 21.271 -173.787
lowerback 6.39665 0.712423 4.95976
upperback 2.51819 1.58863 3.64749
thorax -0.964592 0.923964 0.863118
lowerneck -14.1448 -2.07087 -7.63426
upperneck 38.9312 2.93788 1.1892
head 16.2718 1.49727 2.76117
rclavicle -4.58199e-014 -1.59028e-015
rhumerus -33.7872 -1.82944 -80.7664
rradius 31.095
rwrist -9.06522
rhand -22.3232 10.5063
rfingers 7.12502
rthumb 4.09666 -19.434
lclavicle -4.58199e-014 -1.59028e-015
lhumerus -35.3209 8.22361 85.7056
lradius 30.1565
lwrist 7.07703
lhand -23.5096 22.1281
lfingers 7.12502
lthumb 2.95092 52.0874
rfemur -4.78364 -5.44658 25.7572
rtibia 26.5584
rfoot -20.2121 -11.4069
rtoes 7.43142
lfemur -18.9837 12.6005 -15.293
ltibia 42.5962
lfoot -22.6392 -3.2959
ltoes -6.60208
3592
root 30.0172 17.9581 11.5479 1264.94 20.5126 -173.955
lowerback 6.28023 0.716419 4.98538
upperback 2.55813 1.5805 3.56497
thorax -0.855583 0.921621 0.767251
lowerneck -14.0299 -2.08983 -7.80408
upperneck 38.6298 2.791 1.42823
head 16.0848 1.44554 2.85243
rclavicle -3.97569e-016 7.95139e-015
rhumerus -33.6622 -1.82861 -80.844
rradius 31.074
rwrist -9.29272
rhand -22.4752 10.2822
rfingers 7.12502
rthumb 3.94988 -19.6609
lclavicle -3.97569e-016 7.95139e-015
lhumerus -35.2155 8.31916 85.4977
lradius 29.8361
lwrist 7.1205
lhand -24.0278 21.5983
lfingers 7.12502
lthumb 2.45049 51.564
rfemur -4.65329 -5.76728 25.6917
rtibia 26.5659
rfoot -20.3929 -11.9146
rtoes 7.24996
lfemur -18.7684 13.2506 -15.5664
ltibia 42.0823
lfoot -22.5428 -3.15036
ltoes -6.72392
3593
root 30.021 17.9515 11.5351 1264.94 19.6456 -174.044
lowerback 6.19066 0.696832 5.06754
upperback 2.53896 1.55139 3.52295
thorax -0.822771 0.907485 0.681688
lowerneck -13.9879 -2.15932 -7.97172
upperneck 38.4152 2.59469 1.66202
head 15.9675 1.37192 2.93863
rclavicle -9.74045e-015 6.67916e-014
rhumerus -33.4862 -2.05967 -80.8184
rradius 30.9961
rwrist -9.40115
rhand -21.9616 10.7178
rfingers 7.12502
rthumb 4.44584 -19.2155
lclavicle -9.74045e-015 6.67916e-014
lhumerus -35.2098 8.45668 85.3246
lradius 29.6261
lwrist 6.96706
lhand -24.5616 21.8923
lfingers 7.12502
lthumb 1.93498 51.8633
rfemur -4.67431 -6.08273 25.6987
rtibia 26.6725
rfoot -20.6442 -12.3168
rtoes 8.02337
lfemur -18.6175 13.4876 -15.7773
ltibia 41.491
lfoot -22.5397 -2.76045
ltoes -6.97927
3594
root 30.0222 17.9519 11.5229 1265.09 18.9225 -174.268
lowerback 5.94976 0.695631 4.97979
upperback 2.43068 1.51839 3.45933
thorax -0.801537 0.884545 0.670333
lowerneck -14.0363 -2.20788 -7.93133
upperneck 38.4672 2.61518 1.50877
head 16.0116 1.37403 2.87498
rclavicle 4.04527e-014 -7.95139e-015
rhumerus -33.4302 -2.06545 -80.82
rradius 31.04
rwrist -9.44854
rhand -21.3885 11.0836
rfingers 7.12502
rthumb 4.99921 -18.8374
lclavicle 4.04527e-014 -7.95139e-015
lhumerus -35.3727 8.90317 85.0288
lradius 29.4663
lwrist 6.3698
lhand -24.1921 22.5385
lfingers 7.12502
lthumb 2.29185 52.5059
rfemur -4.92639 -6.36123 25.5485
rtibia 26.7972
rfoot -20.8876 -12.5035
rtoes 9.24764
lfemur -18.6402 13.7078 -16.1383
ltibia 40.8405
lfoot -22.0177 -2.83021
ltoes -4.82492
3595
root 30.0237 17.944 11.5128 1265.21 18.1762 -174.406
lowerback 5.69966 0.647609 4.90343
upperback 2.30861 1.4288 3.45479
thorax -0.791943 0.834532 0.716871
lowerneck -13.9475 -2.22961 -7.96976
upperneck 38.5511 2.68184 1.43697
head 16.0338 1.4029 2.86866
rclavicle 3.40916e-014 2.46493e-014
rhumerus -33.6501 -1.60965 -80.909
rradius 31.2897
rwrist -9.57082
rhand -21.5434 11.2072
rfingers 7.12502
rthumb 4.84963 -18.7173
lclavicle 3.40916e-014 2.46493e-014
lhumerus -35.6052 9.35112 84.7741
lradius 29.315
lwrist 6.07165
lhand -23.8597 22.5833
lfingers 7.12502
lthumb 2.61283 52.547
rfemur -5.1844 -6.50509 25.5312
rtibia 27.0174
rfoot -21.0957 -12.9941
rtoes 9.91258
lfemur -18.5922 13.6995 -16.3515
ltibia 40.1136
lfoot -20.9929 -2.9473
ltoes -2.91909
3596
root 30.0274 17.9406 11.4962 1265.17 17.4936 -174.478
lowerback 5.62902 0.641556 4.84515
upperback 2.2376 1.41605 3.49402
thorax -0.828587 0.826138 0.790894
lowerneck -13.9589 -2.34325 -8.13997
upperneck 38.6664 2.57718 1.54643
head 16.1023 1.36062 2.93856
rclavicle 3.57812e-014 -1.35174e-014
rhumerus -33.9902 -0.885618 -81.048
rradius 31.678
rwrist -9.92688
rhand -22.1439 10.7236
rfingers 7.12502
rthumb 4.26984 -19.2133
lclavicle 3.57812e-014 -1.35174e-014
lhumerus -35.7589 9.63493 84.6559
lradius 29.0409
lwrist 5.9584
lhand -23.6153 22.7551
lfingers 7.12502
lthumb 2.84893 52.7159
rfemur -5.29196 -6.82036 25.5386
rtibia 27.3281
rfoot -21.2022 -13.5681
rtoes 8.75197
lfemur -18.2722 13.5809 -16.48
ltibia 39.2926
lfoot -19.8225 -2.25879
ltoes -3.79855
